<svg viewBox="0 0 160 24" xmlns="http://www.w3.org/2000/svg">
  <g fill="#71717a" opacity="0.5">
    <path d="M12 22 L4.5 7.5 Q9 9.8 11.2 4.5 L12 2.8 L12.8 4.5 Q15 9.8 19.5 7.5 Z" transform="rotate(78 12 12)"/>
    <path d="M47 22 L39.5 7.5 Q44 9.8 46.2 4.5 L47 2.8 L47.8 4.5 Q50 9.8 54.5 7.5 Z" transform="rotate(102 47 12)"/>
    <path d="M82 22 L74.5 7.5 Q79 9.8 81.2 4.5 L82 2.8 L82.8 4.5 Q85 9.8 89.5 7.5 Z" transform="rotate(78 82 12)"/>
    <path d="M117 22 L109.5 7.5 Q114 9.8 116.2 4.5 L117 2.8 L117.8 4.5 Q120 9.8 124.5 7.5 Z" transform="rotate(102 117 12)"/>
    <path d="M152 22 L144.5 7.5 Q149 9.8 151.2 4.5 L152 2.8 L152.8 4.5 Q155 9.8 159.5 7.5 Z" transform="rotate(78 152 12)"/>
  </g>
</svg>
