<svg viewBox="0 0 64 64" xmlns="http://www.w3.org/2000/svg">
  <g fill="#2563eb">
    <path d="M45 39 L58 31 L50 43 Z"/>
    <ellipse cx="33" cy="42" rx="16" ry="11"/>
    <path d="M22 41 C15 34 15.5 24 18.5 16.5 C19.5 13.5 24.5 13.5 25.5 16.5 C28 23 25.5 30 30 36.5 Z"/>
    <circle cx="22" cy="13.5" r="5.6"/>
    <path d="M17 11.5 L8.5 14 L17 16.5 Z"/>
  </g>
  <path d="M28 52.5 L28 59.5 L23.5 59.5 M37 52.5 L37 59.5 L32.5 59.5" fill="none" stroke="#2563eb" stroke-width="2.6" stroke-linecap="round"/>
  <path d="M19.5 17.2 C21.5 19.8 25.5 19.8 27 17 C24.5 15.6 21.5 15.4 19.5 17.2 Z" fill="#ffffff"/>
  <circle cx="20.6" cy="12" r="1.1" fill="#ffffff"/>
</svg>
